CD_DA


// Track 1
TRACK AUDIO
COPY
NO PRE_EMPHASIS
TWO_CHANNEL_AUDIO
FILE "poke-ear.bin" 0 00:14:52
START 00:00:30


// Track 2
TRACK AUDIO
COPY
NO PRE_EMPHASIS
TWO_CHANNEL_AUDIO
FILE "poke-ear.bin" 00:14:52 00:49:18
START 00:00:08
INDEX 00:03:36
INDEX 00:07:40
INDEX 00:16:28
INDEX 00:20:33
INDEX 00:23:64
INDEX 00:31:26
INDEX 00:36:50
INDEX 00:43:40


// Track 3
TRACK AUDIO
COPY
NO PRE_EMPHASIS
TWO_CHANNEL_AUDIO
FILE "poke-ear.bin" 01:03:70 00:20:59
START 00:00:25
INDEX 00:06:68
INDEX 00:13:63


// Track 4
TRACK AUDIO
COPY
NO PRE_EMPHASIS
TWO_CHANNEL_AUDIO
FILE "poke-ear.bin" 01:24:54 01:03:08
START 00:00:02
INDEX 00:08:00
INDEX 00:17:60
INDEX 00:23:28
INDEX 00:31:19
INDEX 00:39:09
INDEX 00:46:41
INDEX 00:52:60


// Track 5
TRACK AUDIO
COPY
NO PRE_EMPHASIS
TWO_CHANNEL_AUDIO
FILE "poke-ear.bin" 02:27:62 01:09:12
START 00:00:21
INDEX 00:07:51
INDEX 00:15:03
INDEX 00:24:46
INDEX 00:33:45
INDEX 00:44:24
INDEX 00:51:17
INDEX 00:58:66


// Track 6
TRACK AUDIO
COPY
NO PRE_EMPHASIS
TWO_CHANNEL_AUDIO
FILE "poke-ear.bin" 03:36:74 00:45:67
START 00:00:21
INDEX 00:07:54
INDEX 00:16:66
INDEX 00:25:07
INDEX 00:31:52
INDEX 00:36:38


// Track 7
TRACK AUDIO
COPY
NO PRE_EMPHASIS
TWO_CHANNEL_AUDIO
FILE "poke-ear.bin" 04:22:66 01:02:74
START 00:00:04
INDEX 00:05:61
INDEX 00:10:31
INDEX 00:13:58
INDEX 00:20:07
INDEX 00:25:58
INDEX 00:42:00
INDEX 00:45:47
INDEX 00:51:16
INDEX 00:55:21


// Track 8
TRACK AUDIO
COPY
NO PRE_EMPHASIS
TWO_CHANNEL_AUDIO
FILE "poke-ear.bin" 05:25:65 00:47:63
START 00:00:07
INDEX 00:05:20
INDEX 00:08:68
INDEX 00:13:16
INDEX 00:17:33
INDEX 00:22:32
INDEX 00:27:38
INDEX 00:33:28
INDEX 00:37:62


// Track 9
TRACK AUDIO
COPY
NO PRE_EMPHASIS
TWO_CHANNEL_AUDIO
FILE "poke-ear.bin" 06:13:53 00:54:16
START 00:00:26
INDEX 00:04:50
INDEX 00:11:30
INDEX 00:15:15
INDEX 00:19:42
INDEX 00:22:36
INDEX 00:26:09
INDEX 00:31:71
INDEX 00:35:65
INDEX 00:47:32


// Track 10
TRACK AUDIO
COPY
NO PRE_EMPHASIS
TWO_CHANNEL_AUDIO
FILE "poke-ear.bin" 07:07:69 00:55:45
START 00:00:02
INDEX 00:07:16
INDEX 00:13:06
INDEX 00:15:70
INDEX 00:20:29
INDEX 00:26:40
INDEX 00:30:34
INDEX 00:37:13
INDEX 00:41:42
INDEX 00:47:02


// Track 11
TRACK AUDIO
COPY
NO PRE_EMPHASIS
TWO_CHANNEL_AUDIO
FILE "poke-ear.bin" 08:03:39 02:11:11
START 00:00:13
INDEX 00:06:19
INDEX 00:24:50
INDEX 00:41:53
INDEX 00:52:45
INDEX 00:57:09
INDEX 01:01:22
INDEX 01:13:32
INDEX 01:21:54
INDEX 01:31:54
INDEX 01:41:47
INDEX 01:50:64


// Track 12
TRACK AUDIO
COPY
NO PRE_EMPHASIS
TWO_CHANNEL_AUDIO
FILE "poke-ear.bin" 10:14:50 01:13:23
START 00:00:03
INDEX 00:11:27
INDEX 00:20:52
INDEX 00:31:24
INDEX 00:38:19
INDEX 00:52:08
INDEX 01:00:49


// Track 13
TRACK AUDIO
COPY
NO PRE_EMPHASIS
TWO_CHANNEL_AUDIO
FILE "poke-ear.bin" 11:27:73 01:28:38
START 00:00:05
INDEX 00:06:26
INDEX 00:12:59
INDEX 00:20:69
INDEX 00:29:37
INDEX 00:36:59
INDEX 00:43:40
INDEX 00:51:31
INDEX 00:59:42
INDEX 01:06:22
INDEX 01:13:22
INDEX 01:21:65


// Track 14
TRACK AUDIO
COPY
NO PRE_EMPHASIS
TWO_CHANNEL_AUDIO
FILE "poke-ear.bin" 12:56:36 01:31:52
START 00:00:10
INDEX 00:06:52
INDEX 00:15:06
INDEX 00:22:04
INDEX 00:31:28
INDEX 00:39:19
INDEX 00:49:27
INDEX 00:56:63
INDEX 01:04:00
INDEX 01:10:49
INDEX 01:17:69
INDEX 01:23:45


// Track 15
TRACK AUDIO
COPY
NO PRE_EMPHASIS
TWO_CHANNEL_AUDIO
FILE "poke-ear.bin" 14:28:13 00:35:74
START 00:00:12
INDEX 00:03:15
INDEX 00:07:42
INDEX 00:13:74
INDEX 00:18:06
INDEX 00:24:40


// Track 16
TRACK AUDIO
COPY
NO PRE_EMPHASIS
TWO_CHANNEL_AUDIO
FILE "poke-ear.bin" 15:04:12 00:33:66
START 00:00:08
INDEX 00:04:56
INDEX 00:12:66
INDEX 00:17:72
INDEX 00:21:20
INDEX 00:28:06


// Track 17
TRACK AUDIO
COPY
NO PRE_EMPHASIS
TWO_CHANNEL_AUDIO
FILE "poke-ear.bin" 15:38:03 00:28:46
START 00:00:16
INDEX 00:03:42
INDEX 00:06:42
INDEX 00:10:02
INDEX 00:13:43
INDEX 00:16:45
INDEX 00:22:14


// Track 18
TRACK AUDIO
COPY
NO PRE_EMPHASIS
TWO_CHANNEL_AUDIO
FILE "poke-ear.bin" 16:06:49 00:40:34
START 00:00:16
INDEX 00:03:11
INDEX 00:09:55
INDEX 00:18:30
INDEX 00:24:49
INDEX 00:32:42


// Track 19
TRACK AUDIO
COPY
NO PRE_EMPHASIS
TWO_CHANNEL_AUDIO
FILE "poke-ear.bin" 16:47:08 00:49:34
START 00:00:07
INDEX 00:06:60
INDEX 00:17:68
INDEX 00:31:56
INDEX 00:35:13
INDEX 00:39:61
INDEX 00:43:05


// Track 20
TRACK AUDIO
COPY
NO PRE_EMPHASIS
TWO_CHANNEL_AUDIO
FILE "poke-ear.bin" 17:36:42 00:20:09
START 00:00:06
INDEX 00:05:01
INDEX 00:10:11


// Track 21
TRACK AUDIO
COPY
NO PRE_EMPHASIS
TWO_CHANNEL_AUDIO
FILE "poke-ear.bin" 17:56:51 00:38:43
START 00:00:21
INDEX 00:03:27
INDEX 00:09:20
INDEX 00:18:72
INDEX 00:31:30


// Track 22
TRACK AUDIO
COPY
NO PRE_EMPHASIS
TWO_CHANNEL_AUDIO
FILE "poke-ear.bin" 18:35:19 00:49:55
START 00:00:20
INDEX 00:10:02
INDEX 00:16:26
INDEX 00:26:42
INDEX 00:31:01
INDEX 00:37:51
INDEX 00:41:54


// Track 23
TRACK AUDIO
COPY
NO PRE_EMPHASIS
TWO_CHANNEL_AUDIO
FILE "poke-ear.bin" 19:24:74 00:29:49
START 00:00:05
INDEX 00:11:35
INDEX 00:14:72
INDEX 00:19:03
INDEX 00:23:43


// Track 24
TRACK AUDIO
COPY
NO PRE_EMPHASIS
TWO_CHANNEL_AUDIO
FILE "poke-ear.bin" 19:54:48 00:31:05
START 00:00:02
INDEX 00:13:57
INDEX 00:19:70


// Track 25
TRACK AUDIO
COPY
NO PRE_EMPHASIS
TWO_CHANNEL_AUDIO
FILE "poke-ear.bin" 20:25:53 00:30:29
START 00:00:19
INDEX 00:10:40
INDEX 00:22:14


// Track 26
TRACK AUDIO
COPY
NO PRE_EMPHASIS
TWO_CHANNEL_AUDIO
FILE "poke-ear.bin" 20:56:07 00:30:01
START 00:00:05
INDEX 00:09:61
INDEX 00:20:27


// Track 27
TRACK AUDIO
COPY
NO PRE_EMPHASIS
TWO_CHANNEL_AUDIO
FILE "poke-ear.bin" 21:26:08 00:30:53
START 00:00:06
INDEX 00:04:04
INDEX 00:08:33
INDEX 00:19:41


// Track 28
TRACK AUDIO
COPY
NO PRE_EMPHASIS
TWO_CHANNEL_AUDIO
FILE "poke-ear.bin" 21:56:61 00:21:68
START 00:00:24
INDEX 00:03:01
INDEX 00:08:56
INDEX 00:14:60


// Track 29
TRACK AUDIO
COPY
NO PRE_EMPHASIS
TWO_CHANNEL_AUDIO
FILE "poke-ear.bin" 22:18:54 00:32:16
START 00:00:06
INDEX 00:14:02
INDEX 00:19:60


// Track 30
TRACK AUDIO
COPY
NO PRE_EMPHASIS
TWO_CHANNEL_AUDIO
FILE "poke-ear.bin" 22:50:70 00:19:28
START 00:00:20
INDEX 00:03:72
INDEX 00:07:11


// Track 31
TRACK AUDIO
COPY
NO PRE_EMPHASIS
TWO_CHANNEL_AUDIO
FILE "poke-ear.bin" 23:10:23 00:31:72
START 00:00:14
INDEX 00:05:47
INDEX 00:11:50


// Track 32
TRACK AUDIO
COPY
NO PRE_EMPHASIS
TWO_CHANNEL_AUDIO
FILE "poke-ear.bin" 23:42:20 00:30:45
START 00:00:02
INDEX 00:08:47
INDEX 00:17:04
INDEX 00:21:05


// Track 33
TRACK AUDIO
COPY
NO PRE_EMPHASIS
TWO_CHANNEL_AUDIO
FILE "poke-ear.bin" 24:12:65 00:31:58
START 00:00:16
INDEX 00:06:29
INDEX 00:12:37


// Track 34
TRACK AUDIO
COPY
NO PRE_EMPHASIS
TWO_CHANNEL_AUDIO
FILE "poke-ear.bin" 24:44:48 00:43:23
START 00:00:27
INDEX 00:11:05
INDEX 00:28:47


// Track 35
TRACK AUDIO
COPY
NO PRE_EMPHASIS
TWO_CHANNEL_AUDIO
FILE "poke-ear.bin" 25:27:71 00:34:02
START 00:00:24
INDEX 00:08:02
INDEX 00:10:54
INDEX 00:12:68
INDEX 00:15:22
INDEX 00:18:04
INDEX 00:20:58
INDEX 00:26:41
INDEX 00:29:10


// Track 36
TRACK AUDIO
COPY
NO PRE_EMPHASIS
TWO_CHANNEL_AUDIO
FILE "poke-ear.bin" 26:01:73 00:33:65
START 00:00:16
INDEX 00:03:12
INDEX 00:05:40
INDEX 00:07:69
INDEX 00:12:03
INDEX 00:21:06
INDEX 00:26:27
INDEX 00:28:42


// Track 37
TRACK AUDIO
COPY
NO PRE_EMPHASIS
TWO_CHANNEL_AUDIO
FILE "poke-ear.bin" 26:35:63 00:30:72
START 00:00:09
INDEX 00:02:40
INDEX 00:04:70
INDEX 00:08:57
INDEX 00:12:30
INDEX 00:14:40
INDEX 00:17:30
INDEX 00:21:43
INDEX 00:24:03
INDEX 00:26:35


// Track 38
TRACK AUDIO
COPY
NO PRE_EMPHASIS
TWO_CHANNEL_AUDIO
FILE "poke-ear.bin" 27:06:60 00:33:01
START 00:00:17
INDEX 00:02:36
INDEX 00:04:60
INDEX 00:09:36
INDEX 00:21:41
INDEX 00:24:48
INDEX 00:27:37


// Track 39
TRACK AUDIO
COPY
NO PRE_EMPHASIS
TWO_CHANNEL_AUDIO
FILE "poke-ear.bin" 27:39:61 00:32:32
START 00:00:21
INDEX 00:03:37
INDEX 00:10:35
INDEX 00:13:62
INDEX 00:16:22
INDEX 00:18:66
INDEX 00:24:09
INDEX 00:27:26


// Track 40
TRACK AUDIO
COPY
NO PRE_EMPHASIS
TWO_CHANNEL_AUDIO
FILE "poke-ear.bin" 28:12:18 00:23:54
START 00:00:10
INDEX 00:12:62


// Track 41
TRACK AUDIO
COPY
NO PRE_EMPHASIS
TWO_CHANNEL_AUDIO
FILE "poke-ear.bin" 28:35:72 00:15:15
START 00:00:14
INDEX 00:03:00
INDEX 00:05:37
INDEX 00:08:00
INDEX 00:10:37


// Track 42
TRACK AUDIO
COPY
NO PRE_EMPHASIS
TWO_CHANNEL_AUDIO
FILE "poke-ear.bin" 28:51:12 00:32:18
START 00:00:12
INDEX 00:03:24
INDEX 00:05:59
INDEX 00:09:09
INDEX 00:11:54
INDEX 00:16:09
INDEX 00:19:16
INDEX 00:23:11


// Track 43
TRACK AUDIO
COPY
NO PRE_EMPHASIS
TWO_CHANNEL_AUDIO
FILE "poke-ear.bin" 29:23:30 00:31:68
START 00:00:22
INDEX 00:11:10
INDEX 00:21:74


// Track 44
TRACK AUDIO
COPY
NO PRE_EMPHASIS
TWO_CHANNEL_AUDIO
FILE "poke-ear.bin" 29:55:23 00:21:33
START 00:00:18
INDEX 00:08:29
INDEX 00:12:66


// Track 45
TRACK AUDIO
COPY
NO PRE_EMPHASIS
TWO_CHANNEL_AUDIO
FILE "poke-ear.bin" 30:16:56 00:25:69
START 00:00:08
INDEX 00:03:30
INDEX 00:07:08
INDEX 00:18:39


// Track 46
TRACK AUDIO
COPY
NO PRE_EMPHASIS
TWO_CHANNEL_AUDIO
FILE "poke-ear.bin" 30:42:50 00:49:09
START 00:00:12
INDEX 00:13:63
INDEX 00:30:30


// Track 47
TRACK AUDIO
COPY
NO PRE_EMPHASIS
TWO_CHANNEL_AUDIO
FILE "poke-ear.bin" 31:31:59 00:49:37
START 00:00:17
INDEX 00:16:19
INDEX 00:31:35


// Track 48
TRACK AUDIO
COPY
NO PRE_EMPHASIS
TWO_CHANNEL_AUDIO
FILE "poke-ear.bin" 32:21:21 00:32:74
START 00:00:14
INDEX 00:10:03
INDEX 00:20:30


// Track 49
TRACK AUDIO
COPY
NO PRE_EMPHASIS
TWO_CHANNEL_AUDIO
FILE "poke-ear.bin" 32:54:20 01:13:26
START 00:00:06
INDEX 00:13:71
INDEX 00:27:74
INDEX 00:41:74
INDEX 00:56:66


// Track 50
TRACK AUDIO
COPY
NO PRE_EMPHASIS
TWO_CHANNEL_AUDIO
FILE "poke-ear.bin" 34:07:46 01:23:26
START 00:00:19
INDEX 00:20:25
INDEX 00:40:24
INDEX 00:58:49


// Track 51
TRACK AUDIO
COPY
NO PRE_EMPHASIS
TWO_CHANNEL_AUDIO
FILE "poke-ear.bin" 35:30:72 00:17:59
START 00:00:15
INDEX 00:05:40
INDEX 00:09:46


// Track 52
TRACK AUDIO
COPY
NO PRE_EMPHASIS
TWO_CHANNEL_AUDIO
FILE "poke-ear.bin" 35:48:56 00:10:10
START 00:00:05
INDEX 00:02:73
INDEX 00:05:35


// Track 53
TRACK AUDIO
COPY
NO PRE_EMPHASIS
TWO_CHANNEL_AUDIO
FILE "poke-ear.bin" 35:58:66 00:41:63
START 00:00:24
INDEX 00:12:12
INDEX 00:27:27


// Track 54
TRACK AUDIO
COPY
NO PRE_EMPHASIS
TWO_CHANNEL_AUDIO
FILE "poke-ear.bin" 36:40:54 00:30:17
START 00:00:13
INDEX 00:03:60
INDEX 00:06:03
INDEX 00:08:45
INDEX 00:10:71
INDEX 00:13:28
INDEX 00:15:36
INDEX 00:17:64
INDEX 00:20:72
INDEX 00:23:37
INDEX 00:25:65


// Track 55
TRACK AUDIO
COPY
NO PRE_EMPHASIS
TWO_CHANNEL_AUDIO
FILE "poke-ear.bin" 37:10:71 00:35:04
START 00:00:25
INDEX 00:02:53
INDEX 00:05:60
INDEX 00:08:18
INDEX 00:15:48
INDEX 00:17:64
INDEX 00:20:22
INDEX 00:22:38
INDEX 00:25:15
INDEX 00:27:58
INDEX 00:30:08


// Track 56
TRACK AUDIO
COPY
NO PRE_EMPHASIS
TWO_CHANNEL_AUDIO
FILE "poke-ear.bin" 37:46:00 00:32:50
START 00:00:13
INDEX 00:02:69
INDEX 00:05:40
INDEX 00:07:59
INDEX 00:10:31
INDEX 00:13:01
INDEX 00:16:18
INDEX 00:18:42
INDEX 00:21:74
INDEX 00:25:03
INDEX 00:27:52


// Track 57
TRACK AUDIO
COPY
NO PRE_EMPHASIS
TWO_CHANNEL_AUDIO
FILE "poke-ear.bin" 38:18:50 00:28:26
START 00:00:10
INDEX 00:02:59
INDEX 00:05:22
INDEX 00:08:10
INDEX 00:11:03
INDEX 00:13:18
INDEX 00:17:70
INDEX 00:20:09
INDEX 00:22:53


// Track 58
TRACK AUDIO
COPY
NO PRE_EMPHASIS
TWO_CHANNEL_AUDIO
FILE "poke-ear.bin" 38:47:01 00:24:41
START 00:00:16
INDEX 00:02:46
INDEX 00:05:03
INDEX 00:09:61
INDEX 00:14:04
INDEX 00:17:04


// Track 59
TRACK AUDIO
COPY
NO PRE_EMPHASIS
TWO_CHANNEL_AUDIO
FILE "poke-ear.bin" 39:11:42 00:25:25
START 00:00:06
INDEX 00:03:16
INDEX 00:05:60
INDEX 00:08:53
INDEX 00:11:74
INDEX 00:14:61
INDEX 00:17:15
INDEX 00:20:21


// Track 60
TRACK AUDIO
COPY
NO PRE_EMPHASIS
TWO_CHANNEL_AUDIO
FILE "poke-ear.bin" 39:36:67 00:32:67
START 00:00:19
INDEX 00:02:59
INDEX 00:05:30
INDEX 00:07:58
INDEX 00:10:48
INDEX 00:13:15
INDEX 00:15:70
INDEX 00:18:44
INDEX 00:22:12
INDEX 00:25:06
INDEX 00:27:23


// Track 61
TRACK AUDIO
COPY
NO PRE_EMPHASIS
TWO_CHANNEL_AUDIO
FILE "poke-ear.bin" 40:09:59 00:17:05
START 00:00:07
INDEX 00:02:40
INDEX 00:04:65
INDEX 00:08:12
INDEX 00:12:21


// Track 62
TRACK AUDIO
COPY
NO PRE_EMPHASIS
TWO_CHANNEL_AUDIO
FILE "poke-ear.bin" 40:26:64 00:30:65
START 00:00:15
INDEX 00:02:46
INDEX 00:04:69
INDEX 00:09:38
INDEX 00:12:00
INDEX 00:14:27
INDEX 00:16:49
INDEX 00:19:23
INDEX 00:21:42
INDEX 00:23:73
INDEX 00:26:09


// Track 63
TRACK AUDIO
COPY
NO PRE_EMPHASIS
TWO_CHANNEL_AUDIO
FILE "poke-ear.bin" 40:57:54 00:26:69
START 00:00:10
INDEX 00:02:66
INDEX 00:05:56
INDEX 00:08:10
INDEX 00:10:50
INDEX 00:13:15
INDEX 00:15:22
INDEX 00:17:44
INDEX 00:20:09
INDEX 00:22:23


// Track 64
TRACK AUDIO
COPY
NO PRE_EMPHASIS
TWO_CHANNEL_AUDIO
FILE "poke-ear.bin" 41:24:48 00:26:50
START 00:00:23
INDEX 00:02:11
INDEX 00:04:21
INDEX 00:06:72
INDEX 00:09:44
INDEX 00:14:58
INDEX 00:17:00
INDEX 00:19:10
INDEX 00:21:28


// Track 65
TRACK AUDIO
COPY
NO PRE_EMPHASIS
TWO_CHANNEL_AUDIO
FILE "poke-ear.bin" 41:51:23 00:17:35
START 00:00:07
INDEX 00:02:05
INDEX 00:04:08
INDEX 00:06:22
INDEX 00:08:40
INDEX 00:10:54
INDEX 00:12:64


// Track 66
TRACK AUDIO
COPY
NO PRE_EMPHASIS
TWO_CHANNEL_AUDIO
FILE "poke-ear.bin" 42:08:58 00:22:22
START 00:00:02
INDEX 00:02:08
INDEX 00:04:22
INDEX 00:06:25
INDEX 00:08:26
INDEX 00:10:29
INDEX 00:12:30
INDEX 00:14:33
INDEX 00:16:69


// Track 67
TRACK AUDIO
COPY
NO PRE_EMPHASIS
TWO_CHANNEL_AUDIO
FILE "poke-ear.bin" 42:31:05 00:24:08
START 00:00:04
INDEX 00:03:05
INDEX 00:05:30
INDEX 00:07:52
INDEX 00:10:17
INDEX 00:12:39
INDEX 00:14:74
INDEX 00:17:23
INDEX 00:19:49


// Track 68
TRACK AUDIO
COPY
NO PRE_EMPHASIS
TWO_CHANNEL_AUDIO
FILE "poke-ear.bin" 42:55:13 00:30:18
START 00:00:16
INDEX 00:06:17
INDEX 00:12:48
INDEX 00:19:13


// Track 69
TRACK AUDIO
COPY
NO PRE_EMPHASIS
TWO_CHANNEL_AUDIO
FILE "poke-ear.bin" 43:25:31 00:26:20
START 00:00:25
INDEX 00:06:18
INDEX 00:10:53
INDEX 00:15:49


// Track 70
TRACK AUDIO
COPY
NO PRE_EMPHASIS
TWO_CHANNEL_AUDIO
FILE "poke-ear.bin" 43:51:51 00:24:58
START 00:00:16
INDEX 00:06:22
INDEX 00:15:03


// Track 71
TRACK AUDIO
COPY
NO PRE_EMPHASIS
TWO_CHANNEL_AUDIO
FILE "poke-ear.bin" 44:16:34 00:31:48
START 00:00:20
INDEX 00:02:12
INDEX 00:04:23
INDEX 00:07:34
INDEX 00:10:18
INDEX 00:13:22
INDEX 00:16:34
INDEX 00:19:02
INDEX 00:21:69


// Track 72
TRACK AUDIO
COPY
NO PRE_EMPHASIS
TWO_CHANNEL_AUDIO
FILE "poke-ear.bin" 44:48:07 00:24:51
START 00:00:19
INDEX 00:02:41
INDEX 00:06:66
INDEX 00:11:15
INDEX 00:15:36
INDEX 00:18:64


// Track 73
TRACK AUDIO
COPY
NO PRE_EMPHASIS
TWO_CHANNEL_AUDIO
FILE "poke-ear.bin" 45:12:58 00:14:65
START 00:00:04
INDEX 00:02:51
INDEX 00:06:18
INDEX 00:09:47


// Track 74
TRACK AUDIO
COPY
NO PRE_EMPHASIS
TWO_CHANNEL_AUDIO
FILE "poke-ear.bin" 45:27:48 00:18:17
START 00:00:05
INDEX 00:04:71
INDEX 00:10:14


// Track 75
TRACK AUDIO
COPY
NO PRE_EMPHASIS
TWO_CHANNEL_AUDIO
FILE "poke-ear.bin" 45:45:65 00:34:46
START 00:00:05
INDEX 00:02:12
INDEX 00:04:29
INDEX 00:06:69
INDEX 00:09:05
INDEX 00:11:17
INDEX 00:13:61
INDEX 00:16:20
INDEX 00:18:36
INDEX 00:20:72
INDEX 00:23:18
INDEX 00:25:38
INDEX 00:27:54
INDEX 00:29:67


// Track 76
TRACK AUDIO
COPY
NO PRE_EMPHASIS
TWO_CHANNEL_AUDIO
FILE "poke-ear.bin" 46:20:36 00:35:34
START 00:00:10
INDEX 00:02:52
INDEX 00:08:52
INDEX 00:14:02
INDEX 00:17:01
INDEX 00:19:20
INDEX 00:21:35
INDEX 00:23:51
INDEX 00:27:65


// Track 77
TRACK AUDIO
COPY
NO PRE_EMPHASIS
TWO_CHANNEL_AUDIO
FILE "poke-ear.bin" 46:55:70 00:44:30
START 00:00:08
INDEX 00:09:03
INDEX 00:17:36
INDEX 00:26:34
INDEX 00:33:00
INDEX 00:39:10


// Track 78
TRACK AUDIO
COPY
NO PRE_EMPHASIS
TWO_CHANNEL_AUDIO
FILE "poke-ear.bin" 47:40:25 00:33:28
START 00:00:24
INDEX 00:04:68
INDEX 00:08:42
INDEX 00:13:53
INDEX 00:16:71
INDEX 00:21:50
INDEX 00:26:17


// Track 79
TRACK AUDIO
COPY
NO PRE_EMPHASIS
TWO_CHANNEL_AUDIO
FILE "poke-ear.bin" 48:13:53 00:27:49
START 00:00:14
INDEX 00:02:19
INDEX 00:04:72
INDEX 00:07:21
INDEX 00:10:51
INDEX 00:12:70
INDEX 00:15:35
INDEX 00:17:56
INDEX 00:20:21
INDEX 00:22:57


// Track 80
TRACK AUDIO
COPY
NO PRE_EMPHASIS
TWO_CHANNEL_AUDIO
FILE "poke-ear.bin" 48:41:27 00:29:29
START 00:00:13
INDEX 00:02:21
INDEX 00:04:32
INDEX 00:06:46
INDEX 00:08:67
INDEX 00:10:67
INDEX 00:13:50
INDEX 00:15:70
INDEX 00:18:19
INDEX 00:20:27
INDEX 00:24:27


// Track 81
TRACK AUDIO
COPY
NO PRE_EMPHASIS
TWO_CHANNEL_AUDIO
FILE "poke-ear.bin" 49:10:56 00:27:69
START 00:00:17
INDEX 00:02:13
INDEX 00:04:51
INDEX 00:06:60
INDEX 00:09:15
INDEX 00:11:26
INDEX 00:13:33
INDEX 00:15:56
INDEX 00:18:24
INDEX 00:20:37
INDEX 00:22:73


// Track 82
TRACK AUDIO
COPY
NO PRE_EMPHASIS
TWO_CHANNEL_AUDIO
FILE "poke-ear.bin" 49:38:50 00:25:63
START 00:00:10
INDEX 00:02:04
INDEX 00:04:27
INDEX 00:06:47
INDEX 00:09:11
INDEX 00:11:28
INDEX 00:14:09
INDEX 00:16:62
INDEX 00:19:15
INDEX 00:21:24


// Track 83
TRACK AUDIO
COPY
NO PRE_EMPHASIS
TWO_CHANNEL_AUDIO
FILE "poke-ear.bin" 50:04:38 00:20:05
START 00:00:24
INDEX 00:03:16
INDEX 00:07:15
INDEX 00:10:63
INDEX 00:14:10


// Track 84
TRACK AUDIO
COPY
NO PRE_EMPHASIS
TWO_CHANNEL_AUDIO
FILE "poke-ear.bin" 50:24:43 00:21:03
START 00:00:02
INDEX 00:02:39
INDEX 00:05:05
INDEX 00:07:65
INDEX 00:10:28
INDEX 00:12:46
INDEX 00:15:46


// Track 85
TRACK AUDIO
COPY
NO PRE_EMPHASIS
TWO_CHANNEL_AUDIO
FILE "poke-ear.bin" 50:45:46 00:38:37
START 00:00:04
INDEX 00:03:64
INDEX 00:06:49
INDEX 00:09:43
INDEX 00:12:09
INDEX 00:14:58
INDEX 00:17:03
INDEX 00:19:55
INDEX 00:22:18
INDEX 00:25:17
INDEX 00:28:13
INDEX 00:30:54
INDEX 00:33:13


// Track 86
TRACK AUDIO
COPY
NO PRE_EMPHASIS
TWO_CHANNEL_AUDIO
FILE "poke-ear.bin" 51:24:08 00:34:16
START 00:00:22
INDEX 00:02:64
INDEX 00:05:51
INDEX 00:08:26
INDEX 00:10:61
INDEX 00:14:23
INDEX 00:17:60
INDEX 00:21:53
INDEX 00:24:39
INDEX 00:28:18


// Track 87
TRACK AUDIO
COPY
NO PRE_EMPHASIS
TWO_CHANNEL_AUDIO
FILE "poke-ear.bin" 51:58:24 00:12:16
START 00:00:17
INDEX 00:03:14
INDEX 00:06:29


// Track 88
TRACK AUDIO
COPY
NO PRE_EMPHASIS
TWO_CHANNEL_AUDIO
FILE "poke-ear.bin" 52:10:40 00:17:40
START 00:00:04
INDEX 00:04:00
INDEX 00:11:31


// Track 89
TRACK AUDIO
COPY
NO PRE_EMPHASIS
TWO_CHANNEL_AUDIO
FILE "poke-ear.bin" 52:28:05 00:35:04
START 00:00:04
INDEX 00:07:15
INDEX 00:11:57
INDEX 00:14:56
INDEX 00:18:56
INDEX 00:21:54
INDEX 00:25:42
INDEX 00:29:31


// Track 90
TRACK AUDIO
COPY
NO PRE_EMPHASIS
TWO_CHANNEL_AUDIO
FILE "poke-ear.bin" 53:03:09 00:47:23
START 00:00:05
INDEX 00:04:00
INDEX 00:08:00
INDEX 00:11:68
INDEX 00:15:70
INDEX 00:19:29
INDEX 00:23:29
INDEX 00:29:01
INDEX 00:33:01
INDEX 00:36:71
INDEX 00:40:66


// Track 91
TRACK AUDIO
COPY
NO PRE_EMPHASIS
TWO_CHANNEL_AUDIO
FILE "poke-ear.bin" 53:50:32 00:31:31
START 00:00:02
INDEX 00:05:05
INDEX 00:10:64
INDEX 00:16:38
INDEX 00:21:13
INDEX 00:25:27


// Track 92
TRACK AUDIO
COPY
NO PRE_EMPHASIS
TWO_CHANNEL_AUDIO
FILE "poke-ear.bin" 54:21:63 00:20:20
START 00:00:19
INDEX 00:04:30
INDEX 00:08:60
INDEX 00:13:15


// Track 93
TRACK AUDIO
COPY
NO PRE_EMPHASIS
TWO_CHANNEL_AUDIO
FILE "poke-ear.bin" 54:42:08 00:19:25
START 00:00:03
INDEX 00:02:72
INDEX 00:09:67
INDEX 00:12:64


// Track 94
TRACK AUDIO
COPY
NO PRE_EMPHASIS
TWO_CHANNEL_AUDIO
FILE "poke-ear.bin" 55:01:33 00:33:28
START 00:00:18
INDEX 00:04:53
INDEX 00:09:30
INDEX 00:14:73
INDEX 00:21:41


// Track 95
TRACK AUDIO
COPY
NO PRE_EMPHASIS
TWO_CHANNEL_AUDIO
FILE "poke-ear.bin" 55:34:61 00:23:46
START 00:00:09
INDEX 00:07:66
INDEX 00:12:10
INDEX 00:17:07


// Track 96
TRACK AUDIO
COPY
NO PRE_EMPHASIS
TWO_CHANNEL_AUDIO
FILE "poke-ear.bin" 55:58:32 00:35:27
START 00:00:17
INDEX 00:03:66
INDEX 00:06:21
INDEX 00:08:55
INDEX 00:10:70
INDEX 00:13:27
INDEX 00:15:61
INDEX 00:18:18
INDEX 00:21:13
INDEX 00:23:45
INDEX 00:26:14
INDEX 00:28:18
INDEX 00:30:45


// Track 97
TRACK AUDIO
COPY
NO PRE_EMPHASIS
TWO_CHANNEL_AUDIO
FILE "poke-ear.bin" 56:33:59 00:29:53
START 00:00:27
INDEX 00:02:17
INDEX 00:04:48
INDEX 00:07:00
INDEX 00:09:26
INDEX 00:12:64
INDEX 00:17:66


// Track 98
TRACK AUDIO
COPY
NO PRE_EMPHASIS
TWO_CHANNEL_AUDIO
FILE "poke-ear.bin" 57:03:37 00:43:71
START 00:00:22
INDEX 00:09:10
INDEX 00:20:63
INDEX 00:29:58


// Track 99
TRACK AUDIO
COPY
NO PRE_EMPHASIS
TWO_CHANNEL_AUDIO
FILE "poke-ear.bin" 57:47:33 02:42:34
START 00:00:04
INDEX 01:45:37
INDEX 02:09:63
INDEX 02:41:03

